<svg xmlns="http://www.w3.org/2000/svg" width="563.4" height="115.6" viewBox="0 0 563.4 115.6"><style>.st0{fill:#45484b}.st1{fill:url(#SVGID_1_)}.st2{fill:url(#SVGID_2_)}.st3{fill:url(#SVGID_3_)}.st4{fill:url(#SVGID_4_)}.st5{fill:url(#SVGID_5_)}.st6{fill:url(#SVGID_6_)}</style><path class="st0" d="M315.9 2.8V45h-7V12.8l-14.1 19.5L281.4 13v32.1h-6.8V2.8h7.3l13.3 19.6 13.6-19.6h7.1zm30.5 14.5c2.3 3.2 3.4 7.6 3.4 13.4h-22.3c.2 3.1 1.1 5.5 2.8 7.1 1.6 1.6 3.9 2.4 6.9 2.4 1.9 0 3.8-.2 5.6-.7 1.8-.5 3.3-1.1 4.7-1.9v6.2c-3.3 1.4-7.1 2.2-11.3 2.2-4.8 0-8.5-1.4-11.2-4.3-2.7-2.9-4.1-7-4.1-12.3 0-5.4 1.3-9.6 3.9-12.5 2.6-2.9 6.2-4.3 10.9-4.3 4.8-.1 8.4 1.5 10.7 4.7zm-16.3 2.4c-1.3 1.2-2.1 3.2-2.5 6H343c-.3-2.7-1.1-4.7-2.3-5.9-1.2-1.2-3-1.9-5.4-1.9-2.2.1-3.9.7-5.2 1.8zM382.7 0v38.4c0 1.7-.7 3.1-2.1 4.3-1.4 1.2-3.1 2-5.3 2.6-2.1.5-4.3.8-6.5.8-4.5 0-8.2-1.3-11.1-3.8-2.9-2.6-4.4-7-4.4-13.4 0-5.1 1.2-9.1 3.7-12 2.5-2.9 6.2-4.3 11.1-4.3 1.1 0 2.5.1 4 .4 1.5.3 2.8.7 4 1.3V0h6.6zm-6.6 20.1c-1-.6-2.1-1-3.4-1.4-1.2-.3-2.5-.5-3.6-.5-6 0-9 3.6-9 10.7 0 3.5.7 6.3 2 8.3 1.3 2 3.7 3 7.1 3 1.9 0 3.6-.2 4.9-.7 1.3-.5 2-1.1 2-1.8V20.1zM388 2.2h7.1v6H388v-6zm.2 11.3h6.6l.1 31.6h-6.7V13.5zm15.6 28.3c-3-2.6-4.5-6.7-4.5-12.5 0-5.9 1.5-10.2 4.4-12.8 2.9-2.6 6.7-4 11.2-4 3.4 0 6.7.6 9.7 1.9v5.9c-3.2-1.3-6.1-2-8.8-2-3.3 0-5.8.8-7.5 2.5-1.6 1.7-2.5 4.3-2.5 7.9 0 3.8.8 6.6 2.4 8.3 1.6 1.8 4.2 2.6 7.7 2.6 2.9 0 5.8-.7 8.7-2.1v5.9c-3 1.4-6.3 2-9.7 2-4.4.3-8.1-1-11.1-3.6zm48-26.7c2.4 1.7 3.6 4.4 3.6 8.1v15.2c0 2.9-1.3 4.9-3.8 6s-6.1 1.7-10.8 1.7c-3.8 0-6.9-.8-9.3-2.3-2.4-1.6-3.7-4.2-3.7-7.8 0-3.5 1-6.1 3-7.8 2-1.7 4.8-2.6 8.5-2.6 3.8 0 7 .8 9.5 2.3v-3c0-4.3-2.6-6.5-7.8-6.5-1.9 0-3.7.3-5.6.9-1.9.6-3.4 1.4-4.6 2.4v-6.2c1.2-.8 2.9-1.4 5.2-1.9 2.3-.5 4.6-.8 7-.8 3.4-.2 6.4.6 8.8 2.3zm-4.7 25.2c1.1-.4 1.6-1.1 1.6-2.3v-6.1c-2.2-.9-4.5-1.4-7.1-1.4-2.4 0-4.2.4-5.5 1.3-1.2.8-1.9 2.1-1.9 3.8 0 1.8.7 3.1 2.1 4 1.4.9 3.1 1.3 5 1.3 2.9-.1 4.7-.3 5.8-.6zm13.4 4.8V1.3h6.6v43.8h-6.6zM274.6 60.2h7v42.2h-7V60.2zm19.2 10.7c2.7-.6 5.3-.9 7.8-.9 4.4 0 7.7.9 9.8 2.8 2.1 1.9 3.2 4.7 3.2 8.7v21H308V82.3c0-4.4-2.5-6.6-7.5-6.6-2.4 0-4.7.4-6.9 1.2v25.6H287V73.2c1.8-.9 4.1-1.7 6.8-2.3zm31.4 30c-1.6-1.6-2.5-3.8-2.5-6.6V76.1h-5.1v-5.5h5.1v-8.9h6.8v8.9h7.7v5.5h-7.7v16.8c0 1.6.3 2.7.8 3.4.5.7 1.5 1 2.9 1 .7 0 1.4-.1 2.1-.3.7-.2 1.4-.4 1.9-.7v5.9c-1.5.7-3.2 1-5.3 1-2.8 0-5.1-.8-6.7-2.3zm40.3-26.2c2.3 3.2 3.4 7.6 3.4 13.4h-22.3c.2 3.1 1.1 5.5 2.8 7.1 1.6 1.6 3.9 2.4 6.9 2.4 1.9 0 3.8-.2 5.6-.7 1.8-.5 3.3-1.1 4.7-1.9v6.2c-3.3 1.4-7.1 2.2-11.3 2.2-4.8 0-8.5-1.4-11.2-4.3-2.7-2.9-4.1-7-4.1-12.3 0-5.4 1.3-9.6 3.9-12.5 2.6-2.9 6.2-4.3 10.9-4.3 4.8-.1 8.4 1.5 10.7 4.7zm-16.3 2.4c-1.3 1.2-2.1 3.2-2.5 6h15.4c-.3-2.7-1.1-4.7-2.3-5.9-1.2-1.2-3-1.9-5.4-1.9-2.1 0-3.9.6-5.2 1.8zm23.8 25.3V58.6h6.6v43.8H373zm11.8 0V58.6h6.6v43.8h-6.6zM397 59.6h7.1v6H397v-6zm.1 11.2h6.6l.1 31.6h-6.7V70.8zm36.8 1.2c2.3 1.4 3.5 3.4 3.5 6.1v25.2c0 3.6-1.2 6.6-3.5 8.9-2.4 2.3-6.1 3.4-11.3 3.4-3.8 0-7.2-.6-10.3-1.7v-6.1c3.5 1.3 6.8 2 9.7 2 3.4 0 5.7-.6 6.9-1.8 1.2-1.2 1.8-2.8 1.8-4.8V101c-1.2.7-2.6 1.2-4 1.6-1.5.4-2.9.6-4.3.6-4.6-.1-8.2-1.5-10.6-4.2-2.4-2.7-3.6-6.6-3.6-11.7 0-6.6 1.5-11.1 4.6-13.7 3-2.5 7.1-3.8 12.2-3.8 3.6.1 6.6.8 8.9 2.2zm-16.6 23c1.4 1.9 3.6 2.9 6.4 2.9 2.7 0 5.1-.6 7.2-1.8V79.4c0-1.5-.6-2.5-1.7-3s-2.6-.8-4.5-.8c-3.6 0-6.1 1-7.5 3.1-1.4 2.1-2.1 4.9-2.1 8.5 0 3.3.7 5.9 2.2 7.8zm49.9-20.3c2.3 3.2 3.4 7.6 3.4 13.4h-22.3c.2 3.1 1.1 5.5 2.8 7.1 1.6 1.6 3.9 2.4 6.9 2.4 1.9 0 3.8-.2 5.6-.7 1.8-.5 3.3-1.1 4.7-1.9v6.2c-3.3 1.4-7.1 2.2-11.3 2.2-4.8 0-8.5-1.4-11.2-4.3-2.7-2.9-4.1-7-4.1-12.3 0-5.4 1.3-9.6 3.9-12.5 2.6-2.9 6.2-4.3 10.9-4.3 4.8-.1 8.4 1.5 10.7 4.7zm-16.3 2.4c-1.3 1.2-2.1 3.2-2.5 6h15.4c-.3-2.7-1.1-4.7-2.3-5.9-1.2-1.2-3-1.9-5.4-1.9-2.2 0-4 .6-5.2 1.8zm30.7-6.2c2.7-.6 5.3-.9 7.8-.9 4.4 0 7.7.9 9.8 2.8 2.1 1.9 3.2 4.7 3.2 8.7v21h-6.6V82.3c0-4.4-2.5-6.6-7.5-6.6-2.4 0-4.7.4-6.9 1.2v25.6h-6.6V73.2c1.8-.9 4.1-1.7 6.8-2.3zm28.8 28.3c-3-2.6-4.5-6.7-4.5-12.5 0-5.9 1.5-10.2 4.4-12.8 2.9-2.6 6.7-4 11.2-4 3.4 0 6.7.6 9.7 1.9v5.9c-3.2-1.3-6.1-2-8.8-2-3.3 0-5.8.8-7.5 2.5-1.6 1.7-2.5 4.3-2.5 7.9 0 3.8.8 6.6 2.4 8.3 1.6 1.8 4.2 2.6 7.7 2.6 2.9 0 5.8-.7 8.7-2.1v5.9c-3 1.4-6.3 2-9.7 2-4.4.2-8.1-1-11.1-3.6zM560 74.7c2.3 3.2 3.4 7.6 3.4 13.4h-22.3c.2 3.1 1.1 5.5 2.8 7.1 1.6 1.6 3.9 2.4 6.9 2.4 1.9 0 3.8-.2 5.6-.7 1.8-.5 3.3-1.1 4.7-1.9v6.2c-3.3 1.4-7.1 2.2-11.3 2.2-4.8 0-8.5-1.4-11.2-4.3-2.7-2.9-4.1-7-4.1-12.3 0-5.4 1.3-9.6 3.9-12.5 2.6-2.9 6.2-4.3 10.9-4.3 4.8-.1 8.4 1.5 10.7 4.7zm-16.3 2.4c-1.3 1.2-2.1 3.2-2.5 6h15.4c-.3-2.7-1.1-4.7-2.3-5.9-1.2-1.2-3-1.9-5.4-1.9-2.2 0-3.9.6-5.2 1.8z"/><linearGradient id="SVGID_1_" gradientUnits="userSpaceOnUse" x1="-2.468" y1="-10.491" x2="271.95" y2="161.736"><stop offset="0" stop-color="#3691ff"/><stop offset=".809" stop-color="#252c7b"/></linearGradient><path class="st1" d="M112.3 27.7H94.5c0 .1.1.2.1.2 5.7 1.1 10 6.1 10 12.1v41.8c0 11.1 9 20.1 20.1 20.1v-62c-.1-6.7-5.6-12.2-12.4-12.2z"/><linearGradient id="SVGID_2_" gradientUnits="userSpaceOnUse" x1="-16.618" y1="12.054" x2="257.801" y2="184.282"><stop offset="0" stop-color="#3691ff"/><stop offset=".809" stop-color="#252c7b"/></linearGradient><path class="st2" d="M62.3 27.7h-20c6.7.1 12.2 5.5 12.2 12.3v41.8c0 11.1 9 20.1 20.1 20.1v-62c0-6.7-5.5-12.2-12.3-12.2z"/><linearGradient id="SVGID_3_" gradientUnits="userSpaceOnUse" x1="1.525" y1="-19.48" x2="278.062" y2="154.077"><stop offset="0" stop-color="#3691ff"/><stop offset=".809" stop-color="#252c7b"/></linearGradient><path class="st3" d="M177.2 81.6v-3c-.1-4.7 2.8-7.2 6.7-9.4 3.9-2.2 8.4-3.1 12.7-4.1 8.5-2 17.1-3.7 25.3-6.5 7.3-2.4 14.1-5.5 19.2-11.6 4.3-5.1 6.8-11.4 7.1-18 .3-5.9-1-14-5.2-18.5-4-4.4-9.9-6.2-15.6-7.2-7.1-1.2-14.8-1-22-1H10.8C4.8 2.4 0 7.3 0 13.2v88.6c11.1 0 20.1-9 20.1-20.1V19.9c0-5.6 4.6-10.2 10.2-10.2h102.8c5.5.2 9.7 2 13.2 5.5 3 3.1 3.6 5.1 5 10.2 25.4 0 63.8-.2 63.9-.2 4 0 11.3-.7 10.6 5.4-.6 5.2-6.1 7.7-10.4 9.2-5.6 1.9-11.5 2.7-17.3 4-6.5 1.4-13.4 1.9-19.7 4-6 2-11.8 5.1-15.9 10-4.8 5.8-6.4 13.3-6.4 20.7v23.3h91.7V81.7l-70.6-.1z"/></svg>