<svg width="380" height="38" viewBox="0 0 380 38"><g fill="#295EC3" fill-rule="evenodd"><path d="M41.036 9.812h-6.502l.031.086a4.507 4.507 0 0 1 3.636 4.422v15.338c0 4.062 3.28 7.356 7.324 7.356V14.32c0-2.49-2.01-4.508-4.489-4.508m-18.289 0H15.46v.004c2.458.02 4.45 2.032 4.45 4.504v15.338c0 4.062 3.28 7.356 7.325 7.356V14.32c0-2.49-2.01-4.508-4.49-4.508"/><path d="M64.711 29.243c.006-.408-.01-.73-.013-1.105-.02-1.742 1.037-2.638 2.434-3.449 1.418-.823 3.076-1.155 4.643-1.517 3.103-.717 6.23-1.37 9.258-2.372 2.684-.887 5.154-2.025 7.005-4.247a11.156 11.156 0 0 0 2.594-6.595c.108-2.169-.366-5.132-1.888-6.793C87.274 1.56 85.12.876 83.032.535 80.429.113 77.619.186 75 .188c-6.13.004-12.262.006-18.393.001-5.92-.005-11.84-.006-17.76-.006H10.798C8.56.183 7.006.189 4.77.189L3.942.183A3.951 3.951 0 0 0 0 4.142v32.493c4.045 0 7.324-3.292 7.324-7.356V6.605a3.734 3.734 0 0 1 3.726-3.743h37.552c1.994.072 3.548.721 4.809 2.022 1.09 1.126 1.316 1.876 1.829 3.74 9.275 0 23.314-.07 23.323-.07 1.447-.007 4.124-.246 3.886 1.988-.201 1.892-2.218 2.842-3.795 3.373-2.059.692-4.209 1.004-6.326 1.457-2.376.509-4.913.685-7.203 1.464-2.19.744-4.318 1.863-5.814 3.675-1.755 2.127-2.351 4.898-2.351 7.603v8.54h33.51v-7.39l-25.759-.021" mask="url(#mask-2)" transform="translate(0 .378)"/><path d="M129.776 7.275v23.257h-3.819V12.784l-7.741 10.74-7.394-10.67v17.678h-3.714V7.275h3.991l7.29 10.809 7.464-10.81zm7.637 9.309c-.694.651-1.146 1.756-1.354 3.313h8.436c-.162-1.487-.58-2.574-1.25-3.26-.672-.685-1.654-1.029-2.95-1.029-1.227 0-2.188.326-2.882.976m8.939-1.342c1.261 1.755 1.88 4.214 1.857 7.374h-12.22c.116 1.722.62 3.029 1.51 3.923.892.896 2.158 1.343 3.802 1.343a11.48 11.48 0 0 0 3.055-.4c.972-.268 1.828-.611 2.569-1.03v3.417c-1.805.79-3.877 1.186-6.214 1.186-2.615 0-4.67-.796-6.162-2.388-1.493-1.592-2.24-3.854-2.24-6.783 0-2.998.707-5.293 2.119-6.886 1.411-1.592 3.401-2.388 5.97-2.388 2.708 0 4.693.877 5.954 2.632m16.125 1.517a7.146 7.146 0 0 0-1.857-.75 8.055 8.055 0 0 0-1.996-.261c-3.287 0-4.93 1.965-4.93 5.892 0 1.953.37 3.482 1.111 4.585.74 1.105 2.036 1.657 3.888 1.657 1.064 0 1.962-.128 2.69-.384.73-.255 1.094-.593 1.094-1.011v-9.728zm3.61-11.053v21.13c0 .93-.381 1.715-1.145 2.353-.764.64-1.724 1.11-2.882 1.412a14.087 14.087 0 0 1-3.575.454c-2.477 0-4.513-.703-6.11-2.11-1.597-1.406-2.396-3.864-2.396-7.375 0-2.812.683-5.008 2.049-6.59 1.365-1.58 3.39-2.37 6.075-2.37.625 0 1.348.082 2.17.244a8.638 8.638 0 0 1 2.204.732v-7.88h3.61zm2.882 7.427h3.645l.035 17.399h-3.68v-17.4zm-.104-2.894h3.888V6.926h-3.888v3.313zm8.557 18.514c-1.632-1.417-2.448-3.707-2.448-6.869 0-3.254.804-5.608 2.413-7.06 1.608-1.453 3.65-2.18 6.127-2.18 1.874 0 3.657.35 5.347 1.046v3.278c-1.76-.744-3.368-1.116-4.826-1.116-1.828 0-3.194.46-4.097 1.378-.902.918-1.353 2.376-1.353 4.375 0 2.093.44 3.621 1.319 4.586.879.965 2.29 1.447 4.235 1.447 1.573 0 3.159-.384 4.756-1.151v3.278c-1.667.744-3.449 1.116-5.346 1.116-2.453 0-4.495-.71-6.127-2.128m23.623-.871c.601-.21.903-.628.903-1.255v-3.383c-1.18-.51-2.477-.767-3.889-.767-1.319 0-2.32.233-3.002.697-.683.466-1.025 1.163-1.025 2.092 0 .977.387 1.71 1.163 2.197.776.489 1.695.733 2.76.733 1.458 0 2.488-.105 3.09-.314m2.551-13.86c1.331.918 1.984 2.4 1.961 4.445v8.369c0 1.58-.693 2.68-2.082 3.294-1.389.616-3.368.925-5.937.925-2.06 0-3.761-.43-5.103-1.29-1.342-.86-2.013-2.302-2.013-4.324 0-1.906.55-3.335 1.649-4.289 1.1-.952 2.656-1.43 4.67-1.43 2.082 0 3.818.419 5.207 1.256v-1.674c0-2.37-1.424-3.556-4.27-3.556-1.02 0-2.037.157-3.055.47-1.02.314-1.864.75-2.535 1.308V14.11c.648-.419 1.591-.767 2.83-1.046a17.377 17.377 0 0 1 3.836-.419c1.897 0 3.511.46 4.842 1.378"/><path mask="url(#mask-4)" d="M208.23 30.532h3.61V6.403h-3.61zm14.615 0h3.854V7.275h-3.854zm10.397-17.382c1.493-.337 2.922-.506 4.288-.506 2.43 0 4.223.512 5.38 1.534 1.158 1.024 1.736 2.616 1.736 4.777v11.577h-3.645V19.444c0-2.441-1.377-3.662-4.13-3.662a10.9 10.9 0 0 0-3.785.663v14.087h-3.645V14.458c1.041-.535 2.309-.97 3.801-1.308m17.063 16.545c-.903-.86-1.354-2.08-1.354-3.661v-9.972h-2.812v-3.034h2.812V8.146h3.75v4.882h4.234v3.034H252.7v9.24c0 .86.15 1.481.451 1.865.3.384.833.575 1.597.575.37 0 .759-.052 1.164-.156a3.995 3.995 0 0 0 1.023-.402v3.243c-.81.372-1.77.558-2.881.558-1.597 0-2.846-.43-3.749-1.29m13.052-13.111c-.694.651-1.146 1.756-1.354 3.313h8.436c-.162-1.487-.58-2.574-1.25-3.26-.672-.685-1.655-1.029-2.95-1.029-1.227 0-2.188.326-2.882.976m8.94-1.342c1.26 1.755 1.88 4.214 1.856 7.374h-12.22c.116 1.722.62 3.029 1.51 3.923.892.896 2.158 1.343 3.802 1.343a11.48 11.48 0 0 0 3.055-.4c.972-.268 1.828-.611 2.57-1.03v3.417c-1.806.79-3.878 1.186-6.215 1.186-2.615 0-4.67-.796-6.162-2.388-1.492-1.592-2.239-3.854-2.239-6.783 0-2.998.706-5.293 2.117-6.886 1.412-1.592 3.403-2.388 5.971-2.388 2.708 0 4.692.877 5.954 2.632m3.974 15.29h3.61V6.403h-3.61zm6.32 0h3.61V6.403h-3.61zm6.63-17.399h3.645l.034 17.399h-3.68v-17.4zm-.105-2.894h3.888V6.926h-3.888v3.313zM300.12 26.47c.786 1.058 1.955 1.586 3.507 1.586 1.503 0 2.823-.336 3.956-1.011v-9.17c0-.814-.307-1.372-.92-1.674-.613-.302-1.44-.453-2.481-.453-1.968 0-3.333.57-4.097 1.708-.764 1.14-1.145 2.708-1.145 4.708 0 1.813.393 3.248 1.18 4.305m9.147-12.674c1.285.767 1.927 1.895 1.927 3.382v13.878c0 1.999-.648 3.626-1.944 4.881-1.297 1.256-3.356 1.883-6.18 1.883-2.059 0-3.935-.314-5.623-.941V33.53c1.92.72 3.703 1.08 5.346 1.08 1.851 0 3.112-.33 3.783-.994.672-.662 1.007-1.54 1.007-2.632v-1.186c-.671.373-1.405.675-2.204.907-.798.232-1.58.35-2.343.35-2.546-.048-4.484-.826-5.815-2.338-1.331-1.51-1.996-3.66-1.996-6.45 0-3.626.833-6.137 2.5-7.532 1.666-1.394 3.888-2.091 6.665-2.091 1.967 0 3.593.383 4.877 1.15m9.147 2.79c-.694.651-1.145 1.756-1.354 3.313h8.436c-.162-1.487-.579-2.574-1.25-3.26-.671-.685-1.654-1.029-2.95-1.029-1.227 0-2.187.326-2.882.976m8.94-1.342c1.26 1.755 1.88 4.214 1.856 7.374h-12.22c.117 1.722.62 3.029 1.51 3.923.892.896 2.16 1.343 3.802 1.343a11.48 11.48 0 0 0 3.055-.4c.973-.268 1.829-.611 2.57-1.03v3.417c-1.805.79-3.877 1.186-6.214 1.186-2.616 0-4.67-.796-6.162-2.388-1.493-1.592-2.24-3.854-2.24-6.783 0-2.998.706-5.293 2.118-6.886 1.412-1.592 3.402-2.388 5.971-2.388 2.707 0 4.692.877 5.953 2.632m7.777-2.092c1.492-.337 2.921-.506 4.286-.506 2.43 0 4.224.512 5.382 1.534 1.156 1.024 1.736 2.616 1.736 4.777v11.577h-3.646V19.444c0-2.441-1.377-3.662-4.13-3.662a10.9 10.9 0 0 0-3.785.663v14.087h-3.645V14.458c1.041-.535 2.309-.97 3.802-1.308m15.656 15.603c-1.632-1.417-2.447-3.707-2.447-6.869 0-3.254.803-5.608 2.412-7.06 1.608-1.453 3.65-2.18 6.127-2.18 1.875 0 3.656.35 5.347 1.046v3.278c-1.76-.744-3.368-1.116-4.826-1.116-1.829 0-3.194.46-4.097 1.378-.902.918-1.353 2.376-1.353 4.375 0 2.093.439 3.621 1.32 4.586.878.965 2.29 1.447 4.234 1.447 1.574 0 3.16-.384 4.756-1.151v3.278c-1.666.744-3.448 1.116-5.345 1.116-2.454 0-4.496-.71-6.128-2.128m18.138-12.169c-.694.651-1.145 1.756-1.354 3.313h8.436c-.162-1.487-.579-2.574-1.25-3.26-.671-.685-1.655-1.029-2.95-1.029-1.227 0-2.187.326-2.882.976m8.939-1.342c1.262 1.755 1.88 4.214 1.858 7.374H367.5c.115 1.722.62 3.029 1.51 3.923.89.896 2.158 1.343 3.801 1.343a11.48 11.48 0 0 0 3.055-.4c.973-.268 1.828-.611 2.57-1.03v3.417c-1.806.79-3.878 1.186-6.215 1.186-2.615 0-4.67-.796-6.161-2.388-1.494-1.592-2.24-3.854-2.24-6.783 0-2.998.706-5.293 2.118-6.886 1.411-1.592 3.402-2.388 5.97-2.388 2.708 0 4.693.877 5.954 2.632"/></g></svg>