<?xml version="1.0" standalone="no"?>
<!DOCTYPE svg>
<svg version="1.0"
 width="601.000000pt" height="601.000000pt" viewBox="0 0 601.000000 601.000000"
 preserveAspectRatio="xMidYMid meet">
<g transform="translate(0.000000,601.000000) scale(0.100000,-0.100000)"
fill="#000000" stroke="none">
<path d="M435 4061 c-51 -23 -111 -89 -124 -138 -7 -26 -11 -359 -11 -1020 l0
-983 28 0 c112 1 258 86 331 195 70 102 65 49 71 890 l5 760 28 47 c15 26 41
57 58 69 71 50 43 49 1238 49 695 0 1142 -4 1186 -10 91 -14 162 -47 226 -107
56 -52 77 -88 105 -177 l18 -59 766 4 c724 4 767 3 802 -14 48 -24 65 -64 49
-118 -24 -81 -98 -139 -232 -183 -74 -24 -358 -83 -604 -126 -353 -62 -559
-208 -642 -455 -27 -80 -27 -82 -31 -422 l-3 -343 865 -2 c476 -2 926 -3 999
-3 l132 0 3 223 2 222 -770 0 -770 0 0 56 c0 69 20 112 72 160 78 70 152 96
573 194 388 91 577 171 705 300 133 133 194 281 193 475 -1 328 -145 481 -497
525 -52 6 -900 10 -2406 10 -2228 0 -2327 -1 -2365 -19z"/>
<path d="M1338 3504 c57 -28 96 -69 123 -129 17 -37 19 -77 19 -520 0 -264 5
-513 10 -553 25 -194 185 -357 373 -378 l57 -7 0 704 0 704 -24 50 c-28 60
-99 127 -154 143 -25 8 -117 12 -248 12 l-208 0 52 -26z"/>
<path d="M2431 3502 c31 -16 68 -46 86 -70 62 -81 63 -92 63 -648 0 -458 2
-507 18 -561 31 -98 96 -184 182 -238 50 -32 150 -65 195 -65 l36 0 -3 718
c-3 800 2 741 -75 818 -68 69 -91 74 -337 74 l-218 0 53 -28z"/>
</g>
</svg>
