<!-- Generator: Adobe Illustrator 23.0.4, SVG Export Plug-In  -->
<svg version="1.1" xmlns="http://www.w3.org/2000/svg" xmlns:xlink="http://www.w3.org/1999/xlink" x="0px" y="0px" width="563.4px"
	 height="115.6px" viewBox="0 0 563.4 115.6" style="enable-background:new 0 0 563.4 115.6;" xml:space="preserve">
<style type="text/css">
	.st0{fill:#45484B;}
	.st1{fill:url(#SVGID_1_);}
	.st2{fill:url(#SVGID_2_);}
	.st3{fill:url(#SVGID_3_);}
	.st4{fill:url(#SVGID_4_);}
	.st5{fill:url(#SVGID_5_);}
	.st6{fill:url(#SVGID_6_);}
</style>
<defs>
</defs>
<g>
	<g>
		<path class="st0" d="M315.9,2.8v42.2h-7V12.8l-14.1,19.5L281.4,13v32.1h-6.8V2.8h7.3l13.3,19.6l13.6-19.6H315.9z"/>
		<path class="st0" d="M346.4,17.3c2.3,3.2,3.4,7.6,3.4,13.4h-22.3c0.2,3.1,1.1,5.5,2.8,7.1c1.6,1.6,3.9,2.4,6.9,2.4
			c1.9,0,3.8-0.2,5.6-0.7c1.8-0.5,3.3-1.1,4.7-1.9v6.2c-3.3,1.4-7.1,2.2-11.3,2.2c-4.8,0-8.5-1.4-11.2-4.3c-2.7-2.9-4.1-7-4.1-12.3
			c0-5.4,1.3-9.6,3.9-12.5c2.6-2.9,6.2-4.3,10.9-4.3C340.5,12.5,344.1,14.1,346.4,17.3z M330.1,19.7c-1.3,1.2-2.1,3.2-2.5,6H343
			c-0.3-2.7-1.1-4.7-2.3-5.9c-1.2-1.2-3-1.9-5.4-1.9C333.1,18,331.4,18.6,330.1,19.7z"/>
		<path class="st0" d="M382.7,0v38.4c0,1.7-0.7,3.1-2.1,4.3c-1.4,1.2-3.1,2-5.3,2.6c-2.1,0.5-4.3,0.8-6.5,0.8
			c-4.5,0-8.2-1.3-11.1-3.8c-2.9-2.6-4.4-7-4.4-13.4c0-5.1,1.2-9.1,3.7-12c2.5-2.9,6.2-4.3,11.1-4.3c1.1,0,2.5,0.1,4,0.4
			c1.5,0.3,2.8,0.7,4,1.3V0H382.7z M376.1,20.1c-1-0.6-2.1-1-3.4-1.4c-1.2-0.3-2.5-0.5-3.6-0.5c-6,0-9,3.6-9,10.7
			c0,3.5,0.7,6.3,2,8.3c1.3,2,3.7,3,7.1,3c1.9,0,3.6-0.2,4.9-0.7c1.3-0.5,2-1.1,2-1.8V20.1z"/>
		<path class="st0" d="M388,2.2h7.1v6H388V2.2z M388.2,13.5h6.6l0.1,31.6h-6.7V13.5z"/>
		<path class="st0" d="M403.8,41.8c-3-2.6-4.5-6.7-4.5-12.5c0-5.9,1.5-10.2,4.4-12.8c2.9-2.6,6.7-4,11.2-4c3.4,0,6.7,0.6,9.7,1.9
			v5.9c-3.2-1.3-6.1-2-8.8-2c-3.3,0-5.8,0.8-7.5,2.5c-1.6,1.7-2.5,4.3-2.5,7.9c0,3.8,0.8,6.6,2.4,8.3c1.6,1.8,4.2,2.6,7.7,2.6
			c2.9,0,5.8-0.7,8.7-2.1v5.9c-3,1.4-6.3,2-9.7,2C410.5,45.7,406.8,44.4,403.8,41.8z"/>
		<path class="st0" d="M451.8,15.1c2.4,1.7,3.6,4.4,3.6,8.1v15.2c0,2.9-1.3,4.9-3.8,6s-6.1,1.7-10.8,1.7c-3.8,0-6.9-0.8-9.3-2.3
			c-2.4-1.6-3.7-4.2-3.7-7.8c0-3.5,1-6.1,3-7.8c2-1.7,4.8-2.6,8.5-2.6c3.8,0,7,0.8,9.5,2.3v-3c0-4.3-2.6-6.5-7.8-6.5
			c-1.9,0-3.7,0.3-5.6,0.9c-1.9,0.6-3.4,1.4-4.6,2.4v-6.2c1.2-0.8,2.9-1.4,5.2-1.9c2.3-0.5,4.6-0.8,7-0.8
			C446.4,12.6,449.4,13.4,451.8,15.1z M447.1,40.3c1.1-0.4,1.6-1.1,1.6-2.3v-6.1c-2.2-0.9-4.5-1.4-7.1-1.4c-2.4,0-4.2,0.4-5.5,1.3
			c-1.2,0.8-1.9,2.1-1.9,3.8c0,1.8,0.7,3.1,2.1,4c1.4,0.9,3.1,1.3,5,1.3C444.2,40.8,446,40.6,447.1,40.3z"/>
		<path class="st0" d="M460.5,45.1V1.3h6.6v43.8H460.5z"/>
		<path class="st0" d="M274.6,60.2h7v42.2h-7V60.2z"/>
		<path class="st0" d="M293.8,70.9c2.7-0.6,5.3-0.9,7.8-0.9c4.4,0,7.7,0.9,9.8,2.8c2.1,1.9,3.2,4.7,3.2,8.7v21H308V82.3
			c0-4.4-2.5-6.6-7.5-6.6c-2.4,0-4.7,0.4-6.9,1.2v25.6h-6.6V73.2C288.8,72.3,291.1,71.5,293.8,70.9z"/>
		<path class="st0" d="M325.2,100.9c-1.6-1.6-2.5-3.8-2.5-6.6V76.1h-5.1v-5.5h5.1v-8.9h6.8v8.9h7.7v5.5h-7.7v16.8
			c0,1.6,0.3,2.7,0.8,3.4c0.5,0.7,1.5,1,2.9,1c0.7,0,1.4-0.1,2.1-0.3c0.7-0.2,1.4-0.4,1.9-0.7v5.9c-1.5,0.7-3.2,1-5.3,1
			C329.1,103.2,326.8,102.4,325.2,100.9z"/>
		<path class="st0" d="M365.5,74.7c2.3,3.2,3.4,7.6,3.4,13.4h-22.3c0.2,3.1,1.1,5.5,2.8,7.1c1.6,1.6,3.9,2.4,6.9,2.4
			c1.9,0,3.8-0.2,5.6-0.7c1.8-0.5,3.3-1.1,4.7-1.9v6.2c-3.3,1.4-7.1,2.2-11.3,2.2c-4.8,0-8.5-1.4-11.2-4.3c-2.7-2.9-4.1-7-4.1-12.3
			c0-5.4,1.3-9.6,3.9-12.5c2.6-2.9,6.2-4.3,10.9-4.3C359.6,69.9,363.2,71.5,365.5,74.7z M349.2,77.1c-1.3,1.2-2.1,3.2-2.5,6h15.4
			c-0.3-2.7-1.1-4.7-2.3-5.9c-1.2-1.2-3-1.9-5.4-1.9C352.3,75.3,350.5,75.9,349.2,77.1z"/>
		<path class="st0" d="M373,102.4V58.6h6.6v43.8H373z"/>
		<path class="st0" d="M384.8,102.4V58.6h6.6v43.8H384.8z"/>
		<path class="st0" d="M397,59.6h7.1v6H397V59.6z M397.1,70.8h6.6l0.1,31.6h-6.7V70.8z"/>
		<path class="st0" d="M433.9,72c2.3,1.4,3.5,3.4,3.5,6.1v25.2c0,3.6-1.2,6.6-3.5,8.9c-2.4,2.3-6.1,3.4-11.3,3.4
			c-3.8,0-7.2-0.6-10.3-1.7v-6.1c3.5,1.3,6.8,2,9.7,2c3.4,0,5.7-0.6,6.9-1.8c1.2-1.2,1.8-2.8,1.8-4.8v-2.2c-1.2,0.7-2.6,1.2-4,1.6
			c-1.5,0.4-2.9,0.6-4.3,0.6c-4.6-0.1-8.2-1.5-10.6-4.2c-2.4-2.7-3.6-6.6-3.6-11.7c0-6.6,1.5-11.1,4.6-13.7c3-2.5,7.1-3.8,12.2-3.8
			C428.6,69.9,431.6,70.6,433.9,72z M417.3,95c1.4,1.9,3.6,2.9,6.4,2.9c2.7,0,5.1-0.6,7.2-1.8V79.4c0-1.5-0.6-2.5-1.7-3
			c-1.1-0.5-2.6-0.8-4.5-0.8c-3.6,0-6.1,1-7.5,3.1c-1.4,2.1-2.1,4.9-2.1,8.5C415.1,90.5,415.8,93.1,417.3,95z"/>
		<path class="st0" d="M467.2,74.7c2.3,3.2,3.4,7.6,3.4,13.4h-22.3c0.2,3.1,1.1,5.5,2.8,7.1c1.6,1.6,3.9,2.4,6.9,2.4
			c1.9,0,3.8-0.2,5.6-0.7c1.8-0.5,3.3-1.1,4.7-1.9v6.2c-3.3,1.4-7.1,2.2-11.3,2.2c-4.8,0-8.5-1.4-11.2-4.3c-2.7-2.9-4.1-7-4.1-12.3
			c0-5.4,1.3-9.6,3.9-12.5c2.6-2.9,6.2-4.3,10.9-4.3C461.3,69.9,464.9,71.5,467.2,74.7z M450.9,77.1c-1.3,1.2-2.1,3.2-2.5,6h15.4
			c-0.3-2.7-1.1-4.7-2.3-5.9c-1.2-1.2-3-1.9-5.4-1.9C453.9,75.3,452.1,75.9,450.9,77.1z"/>
		<path class="st0" d="M481.6,70.9c2.7-0.6,5.3-0.9,7.8-0.9c4.4,0,7.7,0.9,9.8,2.8c2.1,1.9,3.2,4.7,3.2,8.7v21h-6.6V82.3
			c0-4.4-2.5-6.6-7.5-6.6c-2.4,0-4.7,0.4-6.9,1.2v25.6h-6.6V73.2C476.6,72.3,478.9,71.5,481.6,70.9z"/>
		<path class="st0" d="M510.4,99.2c-3-2.6-4.5-6.7-4.5-12.5c0-5.9,1.5-10.2,4.4-12.8c2.9-2.6,6.7-4,11.2-4c3.4,0,6.7,0.6,9.7,1.9
			v5.9c-3.2-1.3-6.1-2-8.8-2c-3.3,0-5.8,0.8-7.5,2.5c-1.6,1.7-2.5,4.3-2.5,7.9c0,3.8,0.8,6.6,2.4,8.3c1.6,1.8,4.2,2.6,7.7,2.6
			c2.9,0,5.8-0.7,8.7-2.1v5.9c-3,1.4-6.3,2-9.7,2C517.1,103,513.4,101.8,510.4,99.2z"/>
		<path class="st0" d="M560,74.7c2.3,3.2,3.4,7.6,3.4,13.4h-22.3c0.2,3.1,1.1,5.5,2.8,7.1c1.6,1.6,3.9,2.4,6.9,2.4
			c1.9,0,3.8-0.2,5.6-0.7c1.8-0.5,3.3-1.1,4.7-1.9v6.2c-3.3,1.4-7.1,2.2-11.3,2.2c-4.8,0-8.5-1.4-11.2-4.3c-2.7-2.9-4.1-7-4.1-12.3
			c0-5.4,1.3-9.6,3.9-12.5c2.6-2.9,6.2-4.3,10.9-4.3C554.1,69.9,557.7,71.5,560,74.7z M543.7,77.1c-1.3,1.2-2.1,3.2-2.5,6h15.4
			c-0.3-2.7-1.1-4.7-2.3-5.9c-1.2-1.2-3-1.9-5.4-1.9C546.7,75.3,545,75.9,543.7,77.1z"/>
	</g>
	<g>
		<linearGradient id="SVGID_1_" gradientUnits="userSpaceOnUse" x1="-2.4683" y1="-10.4914" x2="271.9505" y2="161.7362">
			<stop  offset="0" style="stop-color:#3691FF"/>
			<stop  offset="0.8089" style="stop-color:#252C7B"/>
		</linearGradient>
		<path class="st1" d="M112.3,27.7H94.5c0,0.1,0.1,0.2,0.1,0.2c5.7,1.1,10,6.1,10,12.1v41.8c0,11.1,9,20.1,20.1,20.1h0V39.9
			C124.6,33.2,119.1,27.7,112.3,27.7z"/>
		<linearGradient id="SVGID_2_" gradientUnits="userSpaceOnUse" x1="-16.6182" y1="12.0544" x2="257.8006" y2="184.2819">
			<stop  offset="0" style="stop-color:#3691FF"/>
			<stop  offset="0.8089" style="stop-color:#252C7B"/>
		</linearGradient>
		<path class="st2" d="M62.3,27.7h-6.5h-3.3H42.3v0c6.7,0.1,12.2,5.5,12.2,12.3v41.8c0,11.1,9,20.1,20.1,20.1h0V39.9
			C74.6,33.2,69.1,27.7,62.3,27.7z"/>
		<linearGradient id="SVGID_3_" gradientUnits="userSpaceOnUse" x1="1.525" y1="-19.4798" x2="278.0615" y2="154.0768">
			<stop  offset="0" style="stop-color:#3691FF"/>
			<stop  offset="0.8089" style="stop-color:#252C7B"/>
		</linearGradient>
		<path class="st3" d="M177.2,81.6c0-1.1,0-2,0-3c-0.1-4.7,2.8-7.2,6.7-9.4c3.9-2.2,8.4-3.1,12.7-4.1c8.5-2,17.1-3.7,25.3-6.5
			c7.3-2.4,14.1-5.5,19.2-11.6c4.3-5.1,6.8-11.4,7.1-18c0.3-5.9-1-14-5.2-18.5c-4-4.4-9.9-6.2-15.6-7.2c-7.1-1.2-14.8-1-22-1
			c-16.8,0-33.6,0-50.4,0c-16.2,0-32.4,0-48.6,0c-13.5,0-27.1,0-40.6,0c-12.1,0-24.1,0-36.2,0c-6.1,0-10.4,0-16.5,0
			c-0.1,0-2.1,0-2.3,0C4.8,2.4,0,7.3,0,13.2v1.6V16c0,0,0,85.8,0,85.8c11.1,0,20.1-9,20.1-20.1V19.9c0-5.6,4.6-10.2,10.2-10.2h102.8
			c5.5,0.2,9.7,2,13.2,5.5c3,3.1,3.6,5.1,5,10.2c25.4,0,63.8-0.2,63.9-0.2c4,0,11.3-0.7,10.6,5.4c-0.6,5.2-6.1,7.7-10.4,9.2
			c-5.6,1.9-11.5,2.7-17.3,4c-6.5,1.4-13.4,1.9-19.7,4c-6,2-11.8,5.1-15.9,10c-4.8,5.8-6.4,13.3-6.4,20.7c0,0,0,23.3,0,23.3h91.7
			V81.7C247.7,81.7,177.2,81.6,177.2,81.6z"/>
	</g>
</g>
</svg>
