<?xml version="1.0" encoding="UTF-8"?>
<svg width="380px" height="38px" viewBox="0 0 380 38" version="1.1" xmlns="http://www.w3.org/2000/svg" xmlns:xlink="http://www.w3.org/1999/xlink">
    <!-- Generator: Sketch 53.2 (72643) - https://sketchapp.com -->
    <title>Group 34</title>
    <desc>Created with Sketch.</desc>
    <defs>
        <polygon points="0 0.181058824 90.646708 0.181058824 90.646708 36.6536824 0 36.6536824"></polygon>
        <polygon points="0 37.8191088 379.721259 37.8191088 379.721259 0.558991176 0 0.558991176"></polygon>
    </defs>
    <g stroke="none" stroke-width="1" fill="none" fill-rule="evenodd">
        <g>
            <path d="M41.0364949,9.81171176 L34.5336545,9.81171176 C34.5447818,9.84021176 34.5547965,9.86982941 34.5653675,9.89832941 C36.6333909,10.3001235 38.2012387,12.1274765 38.2012387,14.3203 L38.2012387,29.6577706 C38.2012387,33.7204176 41.4804773,37.0141235 45.5252796,37.0141235 L45.5252796,14.3203 C45.5252796,11.8301824 43.515675,9.81171176 41.0364949,9.81171176" fill="#295EC3"></path>
            <path d="M22.7469224,9.81171176 L20.3567613,9.81171176 L19.1360878,9.81171176 L15.4612709,9.81171176 L15.4612709,9.81562353 C17.9187526,9.83685882 19.9116662,11.8475059 19.9116662,14.3203 L19.9116662,29.6577706 C19.9116662,33.7204176 23.1909048,37.0141235 27.2357072,37.0141235 L27.2357072,14.3203 C27.2357072,11.8301824 25.2261025,9.81171176 22.7469224,9.81171176" fill="#295EC3"></path>
            <g  transform="translate(0.000000, 0.377932)">
                <mask fill="white">
                    <use xlink:href="#path-1"></use>
                </mask>
                <g ></g>
                <path d="M64.7114963,29.2425647 C64.71706,28.8351824 64.7014817,28.5133 64.6975871,28.1377706 C64.6781142,26.3959176 65.7346589,25.4995647 67.1317013,24.6892706 C68.5504422,23.8661235 70.2078653,23.5336235 71.7751567,23.1720647 C74.8780264,22.4550941 78.0053763,21.8012706 81.0331362,20.8004176 C83.71706,19.9130059 86.1867818,18.7746824 88.0383777,16.5533588 C89.5917599,14.6896824 90.5114378,12.3884471 90.6321698,9.95812353 C90.739549,7.78932941 90.2660791,4.82644706 88.74441,3.16506471 C87.2739268,1.55956471 85.1191098,0.876123529 83.0316135,0.5358 C80.4289195,0.112211765 77.6186999,0.184858824 75.0009839,0.186535294 C68.869798,0.192123529 62.7380556,0.194358824 56.6068697,0.189329412 C50.687104,0.1843 44.7673382,0.182623529 38.8475725,0.182623529 L24.0158887,0.182623529 L10.7971186,0.182623529 C8.55940264,0.182623529 7.0060205,0.189329412 4.76886091,0.189329412 C4.72101318,0.189329412 3.98938799,0.182623529 3.94209663,0.182623529 C1.76502489,0.182623529 -0.000333821376,1.95521176 -0.000333821376,4.14188824 L-0.000333821376,4.72474118 L-0.000333821376,5.14497647 L-0.000333821376,36.6358 C4.04502489,36.6358 7.32426354,33.3426529 7.32426354,29.2794471 L7.32426354,6.60462353 C7.32426354,4.53753529 8.99225769,2.86162353 11.0502665,2.86162353 L48.6023895,2.86162353 C50.5964158,2.93371176 52.1503543,3.58306471 53.41053,4.88400588 C54.5015695,6.01003529 54.7274553,6.75997647 55.2398712,8.62421176 C64.5150981,8.62421176 78.5539561,8.55435882 78.5634143,8.5538 C80.0099736,8.54653529 82.6872211,8.30847647 82.4490952,10.5420941 C82.2476896,12.4337118 80.2314085,13.3837118 78.6541025,13.9145941 C76.594981,14.6069765 74.4451713,14.9188 72.327631,15.3720059 C69.9524919,15.8805353 67.4154495,16.0571235 65.1254348,16.8355647 C62.9344539,17.5804765 60.8074553,18.6986824 59.3113792,20.5109471 C57.5560351,22.6378294 56.9596076,25.4090353 56.9596076,28.1137412 L56.9596076,36.6536824 L90.4708228,36.6536824 L90.4708228,29.2643588 C90.4708228,29.2643588 64.7114963,29.2431235 64.7114963,29.2425647" fill="#295EC3" mask="url(#mask-2)"></path>
            </g>
            <polygon fill="#295EC3" points="129.776231 7.27487647 129.776231 30.5319941 125.957315 30.5319941 125.957315 12.7837588 118.215997 23.5232294 110.821854 12.8536118 110.821854 30.5319941 107.107534 30.5319941 107.107534 7.27487647 111.099482 7.27487647 118.389584 18.0836412 125.853274 7.27487647"></polygon>
            <path d="M137.412729,16.5844294 C136.718937,17.2354588 136.267165,18.3396941 136.059083,19.8971353 L144.49475,19.8971353 C144.332846,18.4095471 143.91557,17.3226353 143.244589,16.6369588 C142.573051,15.9518412 141.590504,15.6081647 140.29472,15.6081647 C139.067927,15.6081647 138.107078,15.9339588 137.412729,16.5844294 M146.351909,15.2421353 C147.613198,16.9974 148.23188,19.4556647 148.209069,22.6163706 L135.989537,22.6163706 C136.105262,24.3375471 136.608776,25.6446353 137.499523,26.5393118 C138.390826,27.4351059 139.657122,27.8816059 141.300635,27.8816059 C142.364969,27.8816059 143.383681,27.7486059 144.355657,27.4814882 C145.32819,27.2138118 146.184442,26.8706941 146.924969,26.4521353 L146.924969,29.8693412 C145.120108,30.6589588 143.04819,31.0551647 140.711441,31.0551647 C138.09595,31.0551647 136.041836,30.2588412 134.549098,28.6667529 C133.05636,27.0746647 132.309713,24.8131059 132.309713,21.8843118 C132.309713,18.8856647 133.015745,16.5905765 134.42781,14.9979294 C135.839318,13.4064 137.829449,12.6095176 140.398761,12.6095176 C143.106053,12.6095176 145.090621,13.4874294 146.351909,15.2421353"  fill="#295EC3"></path>
            <path d="M162.47704,16.7587824 C161.921783,16.4335471 161.301988,16.1831941 160.61988,16.0094 C159.937215,15.8350471 159.271242,15.7478706 158.623628,15.7478706 C155.337157,15.7478706 153.694199,17.7126941 153.694199,21.6401059 C153.694199,23.5926353 154.064184,25.1221353 154.805268,26.2252529 C155.545239,27.3300471 156.841022,27.8816059 158.693174,27.8816059 C159.756952,27.8816059 160.654931,27.7541941 161.383775,27.4982529 C162.112618,27.2428706 162.47704,26.9053412 162.47704,26.4867824 L162.47704,16.7587824 Z M166.087318,5.70581176 L166.087318,26.8354882 C166.087318,27.7659294 165.705649,28.5505176 164.94231,29.1892529 C164.178416,29.8291059 163.217567,30.2996353 162.060319,30.6014 C160.903072,30.9037235 159.711329,31.0551647 158.484536,31.0551647 C156.008138,31.0551647 153.971827,30.3521647 152.375048,28.9456059 C150.778269,27.5390471 149.979324,25.0813412 149.979324,21.5702529 C149.979324,18.7582529 150.661988,16.5615176 152.027874,14.9806059 C153.393204,13.4002529 155.41783,12.6095176 158.102867,12.6095176 C158.727669,12.6095176 159.450949,12.6916647 160.272706,12.8537235 C161.093906,13.0163412 161.82887,13.2605471 162.47704,13.5857824 L162.47704,5.70581176 L166.087318,5.70581176 Z"  fill="#295EC3"></path>
            <path d="M168.968753,13.1327441 L172.614082,13.1327441 L172.648577,30.5317147 L168.968753,30.5317147 L168.968753,13.1327441 Z M168.864712,10.2385971 L172.752618,10.2385971 L172.752618,6.92589118 L168.864712,6.92589118 L168.864712,10.2385971 Z"  fill="#295EC3"></path>
            <path d="M177.421833,28.7533147 C175.790003,27.3361382 174.974366,25.0460794 174.974366,21.8842559 C174.974366,18.6302265 175.778319,16.2764618 177.387338,14.8235206 C178.995245,13.3711382 181.037119,12.6446676 183.514073,12.6446676 C185.38848,12.6446676 187.17053,12.9933735 188.860779,13.6902265 L188.860779,16.9682853 C187.100984,16.2244912 185.493078,15.8523147 184.035391,15.8523147 C182.206606,15.8523147 180.841277,16.3116676 179.93829,17.2298147 C179.035859,18.1479618 178.584644,19.6064912 178.584644,21.6054029 C178.584644,23.6976382 179.024176,25.2260206 179.903795,26.19055 C180.782858,27.1556382 182.194922,27.6379029 184.138876,27.6379029 C185.712287,27.6379029 187.297939,27.2539912 188.895274,26.4867265 L188.895274,29.7647853 C187.228392,30.5091382 185.446343,30.8807559 183.549124,30.8807559 C181.095537,30.8807559 179.053663,30.1716088 177.421833,28.7533147"  fill="#295EC3"></path>
            <path d="M201.044703,27.8817735 C201.646138,27.6727735 201.94769,27.2542147 201.94769,26.6266559 L201.94769,23.2440971 C200.767075,22.7333324 199.470735,22.4773912 198.059227,22.4773912 C196.740076,22.4773912 195.738612,22.7098618 195.056504,23.1742441 C194.373839,23.6397441 194.032228,24.3371559 194.032228,25.2664794 C194.032228,26.2427441 194.419461,26.9753618 195.19504,27.4632147 C195.970618,27.9516265 196.890296,28.1958324 197.955186,28.1958324 C199.412873,28.1958324 200.442712,28.0907735 201.044703,27.8817735 M203.596211,14.0218324 C204.927045,14.9399794 205.580223,16.4225382 205.557411,18.4672735 L205.557411,26.8356559 C205.557411,28.4165676 204.863619,29.5152147 203.474922,30.1304794 C202.086225,30.7463029 200.107221,31.0553324 197.538466,31.0553324 C195.478231,31.0553324 193.776855,30.6244794 192.435449,29.76445 C191.092931,28.9049794 190.42195,27.4632147 190.42195,25.4413912 C190.42195,23.5352441 190.971643,22.1057735 192.071028,21.1524206 C193.170413,20.1996265 194.727133,19.7223912 196.740076,19.7223912 C198.823122,19.7223912 200.558993,20.14095 201.94769,20.9780676 L201.94769,19.3043912 C201.94769,16.9333029 200.523941,15.7480382 197.677558,15.7480382 C196.658846,15.7480382 195.640691,15.9045088 194.622536,16.2185676 C193.603824,16.5320676 192.759256,16.96795 192.088275,17.5262147 L192.088275,14.1090088 C192.735889,13.69045 193.67949,13.3417441 194.917411,13.0628912 C196.155332,12.7834794 197.434981,12.6443324 198.753575,12.6443324 C200.65135,12.6443324 202.265376,13.1036853 203.596211,14.0218324"  fill="#295EC3"></path>
            <mask  fill="white">
                <use xlink:href="#path-3"></use>
            </mask>
            <g></g>
            <polygon  fill="#295EC3" mask="url(#mask-4)" points="208.229985 30.53205 211.84082 30.53205 211.84082 6.40316765 208.229985 6.40316765"></polygon>
            <polygon  fill="#295EC3" mask="url(#mask-4)" points="222.845242 30.53205 226.699209 30.53205 226.699209 7.27493235 222.845242 7.27493235"></polygon>
            <path d="M233.242387,13.1501794 C234.735124,12.8132088 236.16388,12.6444441 237.529766,12.6444441 C239.959429,12.6444441 241.753163,13.1557676 242.91041,14.1784147 C244.067657,15.2016206 244.646281,16.7937088 244.646281,18.9552382 L244.646281,30.5318265 L241.000952,30.5318265 L241.000952,19.44365 C241.000952,17.0027088 239.623939,15.7822382 236.870469,15.7822382 C235.550761,15.7822382 234.289473,16.0035324 233.086047,16.4450029 L233.086047,30.5318265 L229.441274,30.5318265 L229.441274,14.4578265 C230.48224,13.9230324 231.749649,13.48715 233.242387,13.1501794"  fill="#295EC3" mask="url(#mask-4)"></path>
            <path d="M250.30511,29.6947088 C249.402123,28.8352382 248.950908,27.6147676 248.950908,26.0338559 L248.950908,16.06165 L246.139019,16.06165 L246.139019,13.0277971 L248.950908,13.0277971 L248.950908,8.14647353 L252.700278,8.14647353 L252.700278,13.0277971 L256.935359,13.0277971 L256.935359,16.06165 L252.700278,16.06165 L252.700278,25.3017971 C252.700278,26.1618265 252.850498,26.7832382 253.151493,27.16715 C253.451933,27.5505029 253.984378,27.7421794 254.748272,27.7421794 C255.118258,27.7421794 255.506603,27.6902088 255.91164,27.5857088 C256.31612,27.4812088 256.657731,27.34765 256.935359,27.1844735 L256.935359,30.4273265 C256.125286,30.7989441 255.164993,30.9850324 254.053924,30.9850324 C252.457145,30.9850324 251.20754,30.5547382 250.30511,29.6947088"  fill="#295EC3" mask="url(#mask-4)"></path>
            <path d="M263.356969,16.5844294 C262.662621,17.2354588 262.211406,18.3396941 262.002767,19.8971353 L270.43899,19.8971353 C270.277086,18.4095471 269.85981,17.3226353 269.188829,16.6369588 C268.517291,15.9518412 267.534187,15.6081647 266.238404,15.6081647 C265.011611,15.6081647 264.051318,15.9339588 263.356969,16.5844294 M272.296149,15.2421353 C273.557438,16.9974 274.17612,19.4556647 274.153309,22.6163706 L261.933777,22.6163706 C262.048946,24.3375471 262.553016,25.6446353 263.443763,26.5393118 C264.33451,27.4351059 265.601362,27.8816059 267.244876,27.8816059 C268.309209,27.8816059 269.327921,27.7486059 270.299898,27.4814882 C271.27243,27.2138118 272.128126,26.8706941 272.869209,26.4521353 L272.869209,29.8693412 C271.063792,30.6589588 268.99243,31.0551647 266.655124,31.0551647 C264.039634,31.0551647 261.98552,30.2588412 260.493338,28.6667529 C259.0006,27.0746647 258.253953,24.8131059 258.253953,21.8843118 C258.253953,18.8856647 258.959985,16.5905765 260.371493,14.9979294 C261.783001,13.4064 263.77369,12.6095176 266.342445,12.6095176 C269.050293,12.6095176 271.034305,13.4874294 272.296149,15.2421353"  fill="#295EC3" mask="url(#mask-4)"></path>
            <polygon  fill="#295EC3" mask="url(#mask-4)" points="276.270571 30.53205 279.880849 30.53205 279.880849 6.40316765 276.270571 6.40316765"></polygon>
            <polygon  fill="#295EC3" mask="url(#mask-4)" points="282.589253 30.53205 286.199531 30.53205 286.199531 6.40316765 282.589253 6.40316765"></polygon>
            <path d="M289.219447,13.1327441 L292.864776,13.1327441 L292.899271,30.5317147 L289.219447,30.5317147 L289.219447,13.1327441 Z M289.115406,10.2385971 L293.003312,10.2385971 L293.003312,6.92589118 L289.115406,6.92589118 L289.115406,10.2385971 Z"  fill="#295EC3" mask="url(#mask-4)"></path>
            <path d="M300.119716,26.4694588 C300.906422,27.5278706 302.075353,28.0559588 303.62651,28.0559588 C305.130375,28.0559588 306.449526,27.7195471 307.583406,27.0450471 L307.583406,17.8747529 C307.583406,17.0611059 307.27629,16.5034 306.663728,16.2010765 C306.050053,15.8987529 305.223288,15.7478706 304.181766,15.7478706 C302.214445,15.7478706 300.849116,16.3173118 300.085221,17.4561941 C299.321327,18.5956353 298.939657,20.1642529 298.939657,22.1637235 C298.939657,23.9765471 299.33301,25.4121647 300.119716,26.4694588 M309.266978,13.7953412 C310.551634,14.5620471 311.193684,15.6897529 311.193684,17.1773412 L311.193684,31.0551647 C311.193684,33.0535176 310.545514,34.6808118 309.249731,35.9364882 C307.953391,37.1916059 305.894269,37.8191647 303.070697,37.8191647 C301.011019,37.8191647 299.135499,37.5051059 297.446919,36.8775471 L297.446919,33.5307529 C299.367505,34.2510765 301.149555,34.6109588 302.793069,34.6109588 C304.644108,34.6109588 305.90484,34.2801353 306.576378,33.6173706 C307.247915,32.9546059 307.583406,32.0772529 307.583406,30.9847529 L307.583406,29.7994882 C306.911868,30.1716647 306.178018,30.4739882 305.379072,30.7059 C304.581239,30.9383706 303.79954,31.0551647 303.035646,31.0551647 C300.489701,31.0082235 298.551868,30.2297824 297.221034,28.7181647 C295.889643,27.2076647 295.224782,25.0578706 295.224782,22.2676647 C295.224782,18.6420176 296.058223,16.1312235 297.724548,14.7364 C299.390873,13.3415765 301.61301,12.6447235 304.389848,12.6447235 C306.356612,12.6447235 307.982878,13.0280765 309.266978,13.7953412"  fill="#295EC3" mask="url(#mask-4)"></path>
            <path d="M318.414129,16.5844294 C317.720337,17.2354588 317.268565,18.3396941 317.060483,19.8971353 L325.496149,19.8971353 C325.334246,18.4095471 324.916969,17.3226353 324.245988,16.6369588 C323.575007,15.9518412 322.591903,15.6081647 321.29612,15.6081647 C320.069327,15.6081647 319.109034,15.9339588 318.414129,16.5844294 M327.353309,15.2421353 C328.614597,16.9974 329.23328,19.4556647 329.210469,22.6163706 L316.990937,22.6163706 C317.106662,24.3375471 317.610176,25.6446353 318.500922,26.5393118 C319.392225,27.4351059 320.659078,27.8816059 322.302035,27.8816059 C323.366369,27.8816059 324.385081,27.7486059 325.357057,27.4814882 C326.32959,27.2138118 327.185842,26.8706941 327.926369,26.4521353 L327.926369,29.8693412 C326.121508,30.6589588 324.04959,31.0551647 321.71284,31.0551647 C319.09735,31.0551647 317.043236,30.2588412 315.551054,28.6667529 C314.05776,27.0746647 313.311113,24.8131059 313.311113,21.8843118 C313.311113,18.8856647 314.017145,16.5905765 315.429209,14.9979294 C316.840717,13.4064 318.830849,12.6095176 321.400161,12.6095176 C324.107452,12.6095176 326.09202,13.4874294 327.353309,15.2421353"  fill="#295EC3" mask="url(#mask-4)"></path>
            <path d="M335.129622,13.1501794 C336.62236,12.8132088 338.051116,12.6444441 339.416445,12.6444441 C341.846665,12.6444441 343.640398,13.1557676 344.797646,14.1784147 C345.954337,15.2016206 346.533517,16.7937088 346.533517,18.9552382 L346.533517,30.5318265 L342.888187,30.5318265 L342.888187,19.44365 C342.888187,17.0027088 341.511174,15.7822382 338.757704,15.7822382 C337.437997,15.7822382 336.176709,16.0035324 334.973283,16.4450029 L334.973283,30.5318265 L331.327953,30.5318265 L331.327953,14.4578265 C332.369476,13.9230324 333.636884,13.48715 335.129622,13.1501794"  fill="#295EC3" mask="url(#mask-4)"></path>
            <path d="M350.785678,28.7533147 C349.153848,27.3361382 348.338767,25.0460794 348.338767,21.8842559 C348.338767,18.6302265 349.142164,16.2764618 350.751183,14.8235206 C352.359089,13.3711382 354.40152,12.6446676 356.877918,12.6446676 C358.752881,12.6446676 360.534375,12.9933735 362.224624,13.6902265 L362.224624,16.9682853 C360.464829,16.2244912 358.857479,15.8523147 357.399236,15.8523147 C355.570451,15.8523147 354.205122,16.3116676 353.302135,17.2298147 C352.399704,18.1479618 351.949045,19.6064912 351.949045,21.6054029 C351.949045,23.6976382 352.38802,25.2260206 353.268196,26.19055 C354.147259,27.1556382 355.558767,27.6379029 357.50272,27.6379029 C359.076688,27.6379029 360.66234,27.2539912 362.259119,26.4867265 L362.259119,29.7647853 C360.592794,30.5091382 358.810744,30.8807559 356.913526,30.8807559 C354.459939,30.8807559 352.417508,30.1716088 350.785678,28.7533147"  fill="#295EC3" mask="url(#mask-4)"></path>
            <path d="M368.924196,16.5844294 C368.229848,17.2354588 367.778633,18.3396941 367.569994,19.8971353 L376.006217,19.8971353 C375.843757,18.4095471 375.427037,17.3226353 374.756056,16.6369588 C374.084518,15.9518412 373.101414,15.6081647 371.805631,15.6081647 C370.578837,15.6081647 369.618545,15.9339588 368.924196,16.5844294 M377.86282,15.2421353 C379.124665,16.9974 379.742791,19.4556647 379.720536,22.6163706 L367.500448,22.6163706 C367.616173,24.3375471 368.120243,25.6446353 369.010433,26.5393118 C369.901736,27.4351059 371.168589,27.8816059 372.812102,27.8816059 C373.876436,27.8816059 374.895148,27.7486059 375.867124,27.4814882 C376.839657,27.2138118 377.695353,26.8706941 378.436436,26.4521353 L378.436436,29.8693412 C376.631019,30.6589588 374.559101,31.0551647 372.222351,31.0551647 C369.606861,31.0551647 367.552747,30.2588412 366.060565,28.6667529 C364.567271,27.0746647 363.820624,24.8131059 363.820624,21.8843118 C363.820624,18.8856647 364.526656,16.5905765 365.93872,14.9979294 C367.350228,13.4064 369.340917,12.6095176 371.909672,12.6095176 C374.616963,12.6095176 376.601531,13.4874294 377.86282,15.2421353"  fill="#295EC3" mask="url(#mask-4)"></path>
        </g>
    </g>
</svg>