<svg width="35" height="40" viewBox="0 0 35 40" xmlns="http://www.w3.org/2000/svg" xmlns:xlink="http://www.w3.org/1999/xlink">
    <title>
        Group 3
    </title>
    <defs>
        <path id="a" d="M0 .5h35v39H0z"/>
    </defs>
    <g fill="none" fill-rule="evenodd">
        <mask id="b" fill="#fff">
            <use xlink:href="#a"/>
        </mask>
        <path d="M12.61 18.319L11.516 6.893h17.19l-3.595 3.585-.14.157c-.963 1.213-.837 2.933.302 4.087l4.282 3.597H12.61zM28.3 12.493l5.556-5.541-.076-.806c-.151-1.588-1.567-2.83-3.224-2.83H11.173l-.114-1.19C10.962 1.142 10.04.42 9.008.507c-1.037.09-1.802.959-1.709 1.943l3.2 33.383H1.887c-1.043 0-1.887.801-1.887 1.79 0 .987.844 1.788 1.887 1.788H12.01a1.96 1.96 0 0 0 .735.082c.142-.013.278-.042.407-.082h14.525c1.042 0 1.887-.8 1.887-1.788 0-.989-.845-1.79-1.887-1.79H14.29l-1.336-13.936h19.041c.845 0 1.653-.335 2.215-.92.573-.597.857-1.411.778-2.235l-.068-.707-6.62-5.542z" fill="#0580FF" mask="url(#b)"/>
    </g>
</svg>
