<svg width="47" height="40" viewBox="0 0 47 40" xmlns="http://www.w3.org/2000/svg" xmlns:xlink="http://www.w3.org/1999/xlink">
    <title>
        Group 3
    </title>
    <defs>
        <path id="a" d="M0 0h47v40H0z"/>
    </defs>
    <g fill="none" fill-rule="evenodd">
        <mask id="b" fill="#fff">
            <use xlink:href="#a"/>
        </mask>
        <path d="M29.848 29.981c0 .077-.06.138-.136.138H25.98a.137.137 0 0 1-.137-.138V10.02c0-.077.062-.139.137-.139h3.733c.076 0 .136.062.136.139V29.98zM9.87 35.211c-1.376 1.4-3.778 1.401-5.157 0a3.715 3.715 0 0 1-1.068-2.62c0-.99.38-1.92 1.068-2.618a3.596 3.596 0 0 1 2.578-1.087c.975 0 1.891.386 2.579 1.086.689.7 1.069 1.63 1.069 2.62 0 .989-.38 1.92-1.07 2.62zm0-25.182c-1.376 1.399-3.778 1.4-5.157 0a3.713 3.713 0 0 1-1.068-2.62c0-.99.38-1.92 1.068-2.62A3.6 3.6 0 0 1 7.29 3.704c.975 0 1.891.385 2.579 1.085.689.7 1.069 1.63 1.069 2.62 0 .99-.38 1.92-1.07 2.62zm27.234.979a1.874 1.874 0 0 0-.22 2.609l3.507 4.23h-6.897V10.02c0-2.12-1.697-3.843-3.782-3.843H25.98c-2.086 0-3.782 1.723-3.782 3.843v3.155h-1.386c-.706 0-1.323-.896-1.323-1.916 0-3.099-2.229-5.62-4.967-5.62h-.154a7.382 7.382 0 0 0-1.92-3.469A7.18 7.18 0 0 0 7.291 0a7.19 7.19 0 0 0-5.156 2.17A7.424 7.424 0 0 0 0 7.41c0 1.979.759 3.84 2.135 5.24a7.192 7.192 0 0 0 5.156 2.168c1.95 0 3.78-.77 5.156-2.169a7.386 7.386 0 0 0 1.88-3.305h.194c.704 0 1.321.895 1.321 1.916 0 3.099 2.229 5.62 4.969 5.62h1.386v6.243h-1.386c-2.74 0-4.969 2.521-4.969 5.62 0 1.021-.617 1.916-1.321 1.916h-.194a7.381 7.381 0 0 0-1.88-3.305 7.181 7.181 0 0 0-5.156-2.17c-1.947 0-3.777.77-5.156 2.17A7.424 7.424 0 0 0 0 32.59c0 1.98.759 3.84 2.135 5.24A7.193 7.193 0 0 0 7.291 40c1.95 0 3.78-.771 5.156-2.17a7.386 7.386 0 0 0 1.92-3.468h.154c2.738 0 4.967-2.521 4.967-5.62 0-1.021.617-1.917 1.323-1.917h1.386v3.156c0 2.119 1.696 3.842 3.782 3.842h3.733c2.085 0 3.782-1.723 3.782-3.842v-8.43h6.894l-4.31 4.38a1.873 1.873 0 0 0 0 2.618 1.804 1.804 0 0 0 2.578 0L47 20.072l-7.326-8.841a1.805 1.805 0 0 0-2.57-.223z" fill="#0580FF" mask="url(#b)"/>
    </g>
</svg>
