<svg width="25" height="25" viewBox="0 0 25 25" xmlns="http://www.w3.org/2000/svg" xmlns:xlink="http://www.w3.org/1999/xlink">
    <title>
        Group 3 Copy
    </title>
    <defs>
        <path id="a" d="M0 0h24.923v24.923H0z"/>
    </defs>
    <g fill="none" fill-rule="evenodd" opacity=".5">
        <mask id="b" fill="#fff">
            <use xlink:href="#a"/>
        </mask>
        <path d="M19.57 17.662v.198h-2.636v-.21c0-1.43.003-2.86-.004-4.29 0-.187-.023-.381-.078-.558-.173-.563-.754-.964-1.309-.926-.593.04-1.124.495-1.238 1.071-.027.14-.03.286-.03.43-.003 1.424-.002 2.849-.002 4.273v.212h-2.625V9.949h2.627v.995l.033.01c.044-.058.083-.12.131-.172.617-.686 1.37-1.08 2.31-1.007.773.06 1.43.397 1.963.962.583.617.863 1.353.86 2.202-.005 1.574-.002 3.148-.002 4.723zM8.541 8.426c-.886-.014-1.584-.682-1.578-1.588.006-.897.67-1.566 1.572-1.574.903-.007 1.58.688 1.588 1.577a1.575 1.575 0 0 1-1.582 1.585zm-1.306 9.436H9.85V9.947H7.235v7.915zM12.462 0C5.579 0 0 5.58 0 12.462s5.58 12.461 12.462 12.461 12.461-5.579 12.461-12.461C24.923 5.579 19.344 0 12.462 0z" fill="#414649" mask="url(#b)"/>
    </g>
</svg>
