<svg width="45" height="46" viewBox="0 0 45 46" xmlns="http://www.w3.org/2000/svg" xmlns:xlink="http://www.w3.org/1999/xlink">
    <title>
        Group 6
    </title>
    <defs>
        <path id="a" d="M0 .907h44.217V46H0z"/>
    </defs>
    <g fill="none" fill-rule="evenodd">
        <path d="M17.5 25.041a5.547 5.547 0 0 1-5.54-5.541 5.547 5.547 0 0 1 5.54-5.542 5.548 5.548 0 0 1 5.542 5.542 5.548 5.548 0 0 1-5.542 5.541M17.5 10C12.262 10 8 14.261 8 19.5c0 5.238 4.262 9.5 9.5 9.5 5.24 0 9.5-4.262 9.5-9.5 0-5.239-4.26-9.5-9.5-9.5" fill="#0580FF"/>
        <g>
            <mask id="b" fill="#fff">
                <use xlink:href="#a"/>
            </mask>
            <path d="M3.949 19.197c0-7.859 6.255-14.253 13.943-14.253 7.689 0 13.944 6.394 13.944 14.253S25.58 33.45 17.892 33.45c-7.688 0-13.943-6.394-13.943-14.253m39.689 23.358L31.895 30.55a18.441 18.441 0 0 0 3.89-11.353c0-10.085-8.026-18.29-17.893-18.29C8.027.907 0 9.112 0 19.197c0 10.085 8.026 18.29 17.89 18.29 4.25 0 8.155-1.528 11.227-4.068l11.728 11.99a1.946 1.946 0 0 0 2.792 0 2.048 2.048 0 0 0 0-2.854" fill="#0580FF" mask="url(#b)"/>
        </g>
    </g>
</svg>
